# xmcd CD database file
#
# Track frame offsets:
#	150
#	21880
#	45167
#	70137
#	91757
#	112652
#	134064
#	158086
#	182353
#	202733
#	227210
#	249375
#	271898
#
# Disc length: 3875 seconds
#
# Revision: 9
# Processed by: cddbd v1.5PL3 Copyright (c) Steve Scherf et al.
# Submitted via: CDex 1.51
#
DISCID=990f210d
DTITLE=Hikaru Utada - Distance
DYEAR=2001
DGENRE=New Age
TTITLE0=Wait and See -risk-
TTITLE1=Can You Keep A Secret?
TTITLE2=DISTANCE
TTITLE3=Sunglass
TTITLE4=Drama
TTITLE5=Eternally
TTITLE6=Addicted To You [UP-IN-HEAVEN MIX]
TTITLE7=For You
TTITLE8=Kettobase!
TTITLE9=Parody
TTITLE10=Time Limit
TTITLE11=Kotobani naranai kimochi
TTITLE12=HAYATOCHI-REMIX (Bonus Track)
EXTD=YEAR: 2001
EXTT0=
EXTT1=
EXTT2=
EXTT3=
EXTT4=
EXTT5=
EXTT6=
EXTT7=
EXTT8=
EXTT9=
EXTT10=
EXTT11=
EXTT12=
PLAYORDER=
